<?xml version="1.0" encoding="UTF-8" standalone="no"?>
<!DOCTYPE svg PUBLIC "-//W3C//DTD SVG 1.1//EN" "http://www.w3.org/Graphics/SVG/1.1/DTD/svg11.dtd">
<svg width="100%" height="100%" viewBox="0 0 373 373" version="1.1" xmlns="http://www.w3.org/2000/svg" xmlns:xlink="http://www.w3.org/1999/xlink" xml:space="preserve" xmlns:serif="http://www.serif.com/" style="fill-rule:evenodd;clip-rule:evenodd;stroke-linejoin:round;stroke-miterlimit:2;">
    <g transform="matrix(-6.12323e-17,-1,-1,6.12323e-17,372.136,372.136)">
        <path d="M371.682,143.271C356.994,98.595 345.366,52.695 320.885,11.691C318.438,7.407 310.482,6.183 308.646,11.691C290.898,53.919 272.538,95.535 260.91,139.599C259.074,146.943 268.254,152.451 273.762,146.943C284.166,136.539 295.183,126.747 306.811,118.179C305.586,208.755 308.647,314.019 200.935,342.171C153.199,354.411 99.955,347.68 60.175,317.079C18.557,284.644 9.377,231.4 12.437,181.828C12.437,176.932 5.093,175.708 3.869,180.604C-19.999,291.376 69.965,377.668 180.125,362.368C234.593,355.024 280.493,329.32 303.749,277.3C324.558,230.788 323.333,175.096 322.109,124.3C333.737,134.704 346.588,143.884 360.052,151.228C366.173,154.9 374.129,150.004 371.682,143.271ZM316.602,102.88C312.93,101.656 310.482,103.492 309.257,106.552L308.646,107.164C298.854,110.224 290.286,115.12 282.33,120.628C291.51,90.64 303.75,61.264 315.378,32.5C331.29,62.488 340.47,94.924 350.874,126.748C339.857,117.568 329.453,108.388 316.602,102.88Z" style="fill:white;fill-rule:nonzero;"/>
    </g>
</svg>
